<svg width="8" height="7" viewBox="0 0 8 7" fill="none" xmlns="http://www.w3.org/2000/svg">
<path d="M0.646894 0.145917C0.693339 0.0993537 0.748515 0.0624107 0.80926 0.0372043C0.870005 0.0119978 0.935126 -0.000976562 1.00089 -0.000976562C1.06666 -0.000976562 1.13178 0.0119978 1.19253 0.0372043C1.25327 0.0624107 1.30845 0.0993537 1.35489 0.145917L4.00089 2.79292L6.64689 0.145917C6.69338 0.099429 6.74857 0.0625527 6.80931 0.0373936C6.87005 0.0122345 6.93515 -0.000714779 7.00089 -0.000714779C7.06664 -0.000714779 7.13174 0.0122345 7.19248 0.0373936C7.25322 0.0625527 7.30841 0.099429 7.35489 0.145917C7.40138 0.192405 7.43826 0.247594 7.46342 0.308333C7.48858 0.369073 7.50152 0.434173 7.50152 0.499917C7.50152 0.565661 7.48858 0.630761 7.46342 0.691501C7.43826 0.75224 7.40138 0.807429 7.35489 0.853917L4.70789 3.49992L7.35489 6.14592C7.40138 6.1924 7.43826 6.24759 7.46342 6.30833C7.48858 6.36907 7.50152 6.43417 7.50152 6.49992C7.50152 6.56566 7.48858 6.63076 7.46342 6.6915C7.43826 6.75224 7.40138 6.80743 7.35489 6.85392C7.30841 6.9004 7.25322 6.93728 7.19248 6.96244C7.13174 6.9876 7.06664 7.00055 7.00089 7.00055C6.93515 7.00055 6.87005 6.9876 6.80931 6.96244C6.74857 6.93728 6.69338 6.9004 6.64689 6.85392L4.00089 4.20692L1.35489 6.85392C1.30841 6.9004 1.25322 6.93728 1.19248 6.96244C1.13174 6.9876 1.06664 7.00055 1.00089 7.00055C0.93515 7.00055 0.870049 6.9876 0.80931 6.96244C0.748571 6.93728 0.693381 6.9004 0.646894 6.85392C0.600406 6.80743 0.563529 6.75224 0.53837 6.6915C0.513211 6.63076 0.500262 6.56566 0.500262 6.49992C0.500262 6.43417 0.513211 6.36907 0.53837 6.30833C0.563529 6.24759 0.600406 6.1924 0.646894 6.14592L3.29389 3.49992L0.646894 0.853917C0.60033 0.807471 0.563387 0.752296 0.538181 0.691551C0.512974 0.630806 0.5 0.565684 0.5 0.499917C0.5 0.43415 0.512974 0.369028 0.538181 0.308283C0.563387 0.247538 0.60033 0.192363 0.646894 0.145917Z" fill="#ffffff"/>
</svg>
